<?xml version="1.0" standalone="no"?><!DOCTYPE svg PUBLIC "-//W3C//DTD SVG 1.1//EN" "http://www.w3.org/Graphics/SVG/1.1/DTD/svg11.dtd"><svg t="1555251769903" class="icon" style="" viewBox="0 0 1024 1024" version="1.1" xmlns="http://www.w3.org/2000/svg" p-id="5885" xmlns:xlink="http://www.w3.org/1999/xlink" width="200" height="200"><defs><style type="text/css"></style></defs><path d="M365.714286 512H73.142857c-36.571429 0-73.142857 36.571429-73.142857 73.142857v292.571429c0 36.571429 36.571429 73.142857 73.142857 73.142857h292.571429c36.571429 0 73.142857-36.571429 73.142857-73.142857V585.142857c0-36.571429-36.571429-73.142857-73.142857-73.142857z m0 365.714286H73.142857V585.142857h292.571429v292.571429z m512-877.714286H585.142857c-36.571429 0-73.142857 36.571429-73.142857 73.142857v292.571429c0 36.571429 36.571429 73.142857 73.142857 73.142857h292.571429c36.571429 0 73.142857-36.571429 73.142857-73.142857V73.142857c0-36.571429-36.571429-73.142857-73.142857-73.142857z m0 365.714286H585.142857V73.142857h292.571429v292.571429z m0 146.285714H585.142857c-36.571429 0-73.142857 36.571429-73.142857 73.142857v292.571429c0 36.571429 36.571429 73.142857 73.142857 73.142857h292.571429c36.571429 0 73.142857-36.571429 73.142857-73.142857V585.142857c0-36.571429-36.571429-73.142857-73.142857-73.142857z m0 365.714286H585.142857V585.142857h292.571429v292.571429zM365.714286 0H73.142857C36.571429 0 0 36.571429 0 73.142857v292.571429c0 36.571429 36.571429 73.142857 73.142857 73.142857h292.571429c36.571429 0 73.142857-36.571429 73.142857-73.142857V73.142857c0-36.571429-36.571429-73.142857-73.142857-73.142857z m0 365.714286H73.142857V73.142857h292.571429v292.571429z" fill="" p-id="5886"></path></svg>